<?xml version="1.0" standalone="no"?>
<!DOCTYPE svg PUBLIC "-//W3C//DTD SVG 20010904//EN"
 "http://www.w3.org/TR/2001/REC-SVG-20010904/DTD/svg10.dtd">
<svg version="1.0" xmlns="http://www.w3.org/2000/svg"
 width="640.000000pt" height="640.000000pt" viewBox="0 0 640.000000 640.000000"
 preserveAspectRatio="xMidYMid meet">

<g transform="translate(0.000000,640.000000) scale(0.100000,-0.100000)"
fill="#000000" stroke="none">
<path d="M1598 6393 c881 -2 2323 -2 3205 0 881 1 160 2 -1603 2 -1763 0
-2484 -1 -1602 -2z"/>
<path d="M3119 5305 c-3 -11 -1 -87 2 -170 4 -82 10 -215 14 -295 3 -80 8
-179 10 -220 2 -41 6 -149 10 -240 3 -91 8 -197 11 -237 l6 -72 79 -26 c49
-17 89 -25 105 -21 25 7 126 74 132 88 2 5 9 8 17 8 7 0 18 7 25 15 30 36 49
-32 20 -70 -4 -5 -17 -41 -29 -79 l-21 -69 20 -40 c12 -21 35 -58 53 -81 17
-22 32 -42 32 -43 1 -1 37 8 81 22 104 31 264 79 339 100 33 9 76 22 95 30 19
7 80 25 135 40 55 14 111 30 125 35 14 4 45 13 70 20 25 6 105 31 178 54 l133
43 -198 6 c-155 5 -226 11 -328 32 -71 14 -139 29 -150 34 -11 5 -40 15 -65
22 -25 7 -49 16 -55 21 -5 4 -19 8 -31 8 -13 0 -29 7 -38 15 -8 9 -31 22 -51
30 -51 22 -48 51 8 58 23 3 58 9 77 12 36 7 93 49 104 75 3 8 10 22 15 30 5 8
17 41 26 72 15 51 15 59 1 87 -9 16 -16 38 -16 48 0 32 -46 88 -92 111 -52 25
-149 36 -201 21 -41 -11 -88 -56 -125 -118 -23 -40 -26 -54 -24 -132 2 -52 -2
-90 -8 -94 -11 -7 -37 18 -110 104 -25 30 -55 65 -68 80 -76 88 -190 309 -219
426 -9 39 -20 72 -25 73 -4 2 -8 11 -8 21 0 9 -4 21 -9 27 -5 5 -18 43 -28 84
-12 46 -21 67 -24 55z"/>
<path d="M3057 5218 c-14 -35 -33 -90 -43 -123 -9 -33 -22 -70 -30 -82 -8 -12
-23 -47 -34 -76 -23 -61 -122 -236 -178 -313 -20 -28 -65 -80 -99 -115 -50
-51 -65 -61 -75 -51 -10 10 -10 22 0 57 17 63 15 77 -12 137 -45 97 -122 148
-222 148 -100 0 -172 -51 -220 -155 -20 -43 -22 -59 -15 -101 16 -101 109
-193 216 -213 51 -10 60 -15 51 -30 -11 -17 -135 -79 -215 -106 -42 -14 -85
-30 -96 -35 -42 -19 -232 -40 -410 -46 -102 -4 -185 -10 -185 -14 0 -4 26 -15
58 -25 31 -9 84 -26 117 -36 33 -10 71 -21 85 -23 14 -3 122 -34 240 -70 118
-36 225 -66 237 -66 12 0 25 -4 28 -10 3 -5 17 -10 30 -10 13 0 26 -4 29 -9 3
-4 25 -11 48 -15 24 -4 79 -18 123 -31 129 -39 126 -39 184 35 60 77 65 113
26 208 -28 68 -32 112 -12 112 7 0 45 -23 83 -50 38 -28 78 -57 89 -65 18 -13
30 -11 105 12 47 14 87 27 89 29 6 5 9 73 15 399 4 171 9 360 12 420 8 138 14
375 10 375 -2 0 -15 -28 -29 -62z"/>
<path d="M4760 4065 c-19 -8 -123 -45 -230 -84 -107 -38 -296 -106 -420 -151
-124 -45 -273 -99 -331 -120 -59 -21 -121 -46 -139 -55 l-32 -16 4 -94 c4
-107 7 -112 115 -192 35 -25 63 -50 63 -55 0 -4 -47 -8 -105 -8 -101 0 -106
-1 -133 -27 -47 -47 -104 -133 -98 -148 6 -16 152 -234 245 -365 125 -177 339
-496 355 -530 l17 -35 -38 41 c-21 22 -49 56 -63 74 -14 19 -36 47 -49 62 -13
16 -33 42 -45 58 -58 79 -112 147 -133 169 -13 13 -23 27 -23 32 0 4 -6 14
-13 21 -7 7 -30 36 -51 63 -21 28 -50 64 -65 80 -14 17 -55 68 -91 115 -143
187 -133 177 -172 162 -18 -7 -44 -15 -58 -18 -34 -6 -85 -31 -98 -46 -12 -16
-46 -106 -62 -165 -8 -31 -16 -43 -29 -43 -22 0 -31 18 -32 63 0 18 -13 61
-27 97 -25 59 -31 66 -67 78 -22 7 -49 17 -60 22 -71 34 -70 35 -132 -43 -32
-40 -69 -88 -83 -107 -13 -19 -27 -37 -31 -40 -3 -3 -57 -72 -118 -155 -62
-82 -125 -164 -141 -181 -15 -18 -36 -46 -45 -64 -9 -18 -28 -42 -41 -54 -13
-11 -34 -36 -46 -53 -13 -18 -57 -77 -98 -130 -97 -125 -101 -132 -59 -103 19
13 36 27 39 30 5 5 192 130 235 157 101 62 301 150 395 173 194 48 242 46 181
-7 -18 -15 -46 -47 -63 -71 -26 -38 -30 -52 -30 -110 -1 -110 43 -182 137
-226 63 -30 103 -32 171 -9 127 43 183 150 149 285 -13 50 -26 73 -61 108 -40
42 -55 71 -36 70 25 -2 186 -31 236 -44 62 -16 157 -51 191 -72 11 -6 56 -31
100 -54 78 -42 147 -88 153 -102 2 -5 8 -8 13 -8 6 0 36 -19 67 -42 31 -24 71
-53 87 -65 17 -12 47 -32 68 -43 l38 -21 -7 28 c-3 15 -26 93 -50 173 -85 280
-120 589 -85 747 15 67 23 71 45 20 38 -91 118 -140 227 -139 98 0 175 48 222
137 25 48 27 152 4 205 -20 45 -82 105 -129 125 -53 21 -153 19 -207 -5 -24
-11 -47 -20 -53 -20 -16 0 2 41 63 143 110 184 202 277 482 486 75 57 137 105
137 107 0 8 -25 3 -60 -11z"/>
<path d="M2704 3717 c-2 -7 -3 -102 -2 -212 l3 -200 28 -3 c55 -6 57 3 57 212
0 136 -4 196 -12 204 -16 16 -67 15 -74 -1z"/>
<path d="M2999 3723 c-21 -5 -174 -402 -160 -416 5 -5 21 -7 37 -5 22 2 33 11
43 36 l15 32 76 0 76 0 15 -32 c10 -25 21 -34 43 -36 16 -2 33 1 38 6 7 7 -14
74 -62 199 -40 103 -76 196 -81 206 -10 17 -12 18 -40 10z m38 -205 c12 -29
19 -56 16 -60 -8 -14 -83 -9 -83 5 0 22 31 107 40 107 4 0 16 -24 27 -52z"/>
<path d="M3254 3717 c-2 -7 -3 -102 -2 -212 l3 -200 35 0 35 0 5 80 5 80 78 3
78 3 -3 37 -3 37 -75 5 -75 5 0 45 0 45 92 3 c89 3 93 4 99 28 12 47 -7 54
-143 54 -91 0 -125 -3 -129 -13z"/>
<path d="M4770 1883 c-8 -3 -30 -19 -47 -36 -54 -51 -41 -127 27 -162 37 -19
63 -19 100 0 37 19 51 45 52 94 0 49 -18 77 -65 96 -40 16 -44 16 -67 8z m91
-42 c37 -37 38 -79 3 -120 -53 -63 -154 -28 -154 54 0 48 45 95 90 95 22 0 41
-9 61 -29z"/>
<path d="M4750 1780 c0 -27 5 -50 10 -50 6 0 10 9 10 20 0 11 5 20 10 20 6 0
18 -9 27 -20 10 -11 21 -20 26 -20 5 0 4 7 -4 16 -10 13 -10 20 0 36 17 27 -2
48 -45 48 l-34 0 0 -50z m67 24 c5 -15 -28 -27 -40 -15 -5 5 -6 14 -2 21 8 13
37 9 42 -6z"/>
<path d="M3420 1823 c-39 -50 -8 -103 62 -103 47 0 78 28 78 69 0 62 -99 86
-140 34z"/>
<path d="M1702 1573 l3 -208 65 0 65 0 3 208 2 207 -70 0 -70 0 2 -207z"/>
<path d="M2457 1773 c-3 -5 -23 -51 -45 -103 -22 -52 -59 -137 -81 -189 -23
-52 -41 -101 -41 -108 0 -11 15 -13 63 -11 61 3 62 4 81 41 l18 38 76 -3 c74
-3 77 -4 91 -33 19 -41 27 -45 94 -45 43 0 57 3 57 15 0 13 -59 154 -142 338
l-31 67 -68 0 c-37 0 -70 -3 -72 -7z m91 -178 c19 -42 15 -55 -18 -55 -33 0
-37 11 -20 54 12 33 24 33 38 1z"/>
<path d="M2075 1685 c-25 -9 -43 -11 -49 -5 -6 6 -34 10 -62 10 -42 0 -54 -4
-57 -17 -3 -10 -6 -79 -7 -154 -1 -158 0 -162 82 -157 l53 3 5 95 c6 106 11
120 45 120 34 0 39 -14 45 -120 l5 -95 39 -3 c22 -2 50 -1 63 2 22 6 23 9 23
124 0 98 -3 122 -20 149 -32 54 -97 73 -165 48z"/>
<path d="M2967 1686 c-20 -8 -40 -10 -43 -5 -3 5 -32 9 -65 9 l-59 0 2 -162 3
-163 60 0 60 0 5 95 c5 102 11 120 39 120 33 0 41 -21 41 -117 0 -89 1 -93 23
-99 13 -3 41 -4 63 -2 l39 3 6 95 c6 104 11 120 38 120 32 0 44 -28 48 -113 1
-45 5 -88 8 -94 6 -18 99 -17 114 1 8 9 11 50 8 123 -5 129 -19 164 -79 188
-50 20 -63 19 -115 -6 l-43 -21 -43 21 c-50 24 -59 25 -110 7z"/>
<path d="M3695 1685 c-127 -45 -142 -220 -23 -281 33 -17 99 -22 136 -10 16 5
22 3 22 -7 0 -36 -66 -52 -128 -30 -24 8 -45 13 -47 11 -8 -9 -35 -69 -35 -77
0 -30 125 -55 202 -41 28 6 67 22 86 36 55 43 63 74 60 247 l-3 152 -53 3
c-30 2 -59 -1 -66 -7 -8 -7 -25 -6 -51 4 -49 17 -51 17 -100 0z m131 -120 c15
-23 15 -27 0 -50 -11 -17 -26 -25 -44 -25 -35 0 -52 17 -52 52 0 50 68 66 96
23z"/>
<path d="M4137 1688 c-51 -14 -102 -64 -117 -115 -52 -172 185 -287 322 -156
90 86 41 240 -85 271 -53 14 -68 14 -120 0z m97 -114 c35 -35 12 -104 -34
-104 -19 0 -33 7 -40 19 -24 45 -2 101 40 101 10 0 26 -7 34 -16z"/>
<path d="M4505 1685 c-55 -19 -85 -57 -85 -105 0 -53 39 -85 115 -95 36 -4 55
-11 52 -18 -4 -13 -54 -15 -108 -3 -34 7 -37 6 -49 -23 -17 -43 -9 -56 44 -70
109 -27 212 -1 242 62 32 67 -10 121 -105 134 -32 5 -56 14 -59 22 -4 12 7 13
62 8 l66 -6 15 35 c8 20 13 40 10 44 -6 10 -96 30 -133 30 -15 -1 -45 -7 -67
-15z"/>
<path d="M3417 1684 c-4 -4 -7 -76 -7 -160 0 -174 -3 -169 91 -162 l44 3 0
160 0 160 -60 3 c-34 2 -64 0 -68 -4z"/>
<path d="M2187 1202 c-6 -8 -9 -69 -8 -129 1 -52 28 -61 38 -13 4 25 10 30 33
30 28 0 55 21 43 33 -3 4 -21 7 -40 7 -26 0 -33 4 -33 20 0 17 7 20 39 20 36
0 59 18 44 34 -9 9 -111 7 -116 -2z"/>
<path d="M2389 1181 c-41 -41 -40 -90 2 -125 36 -31 72 -33 115 -7 78 47 34
161 -61 161 -16 0 -38 -12 -56 -29z m99 -23 c13 -13 16 -57 4 -74 -14 -20 -45
-25 -68 -9 -42 27 -25 95 24 95 16 0 33 -5 40 -12z"/>
<path d="M2614 1195 c-4 -8 -4 -41 -2 -72 4 -43 10 -61 28 -75 32 -26 76 -23
106 7 22 22 25 32 22 88 -2 47 -7 62 -18 62 -11 0 -16 -16 -20 -63 -3 -40 -10
-66 -20 -72 -36 -23 -54 0 -60 71 -5 61 -23 89 -36 54z"/>
<path d="M2850 1120 c0 -73 3 -90 15 -90 11 0 15 11 15 38 0 21 3 42 7 46 4 4
27 -14 51 -40 29 -32 46 -44 53 -37 13 13 7 163 -6 163 -5 0 -11 -17 -13 -37
-2 -21 -7 -41 -11 -45 -4 -5 -24 15 -45 42 -56 74 -66 68 -66 -40z"/>
<path d="M3085 1198 c-3 -8 -5 -48 -3 -89 l3 -74 35 -3 c114 -11 178 80 104
149 -30 28 -130 40 -139 17z m113 -40 c7 -7 12 -24 12 -38 0 -35 -17 -50 -57
-50 -33 0 -33 0 -33 50 0 50 0 50 33 50 18 0 38 -5 45 -12z"/>
<path d="M3344 1136 c-19 -41 -34 -82 -34 -90 0 -22 17 -20 32 4 9 14 24 20
50 20 27 0 40 -5 48 -20 11 -20 35 -27 44 -12 6 10 -61 154 -77 164 -22 14
-28 8 -63 -66z m66 -17 c0 -10 -6 -19 -13 -19 -22 0 -27 11 -16 32 12 22 29
15 29 -13z"/>
<path d="M3522 1193 c2 -10 12 -19 23 -22 28 -5 36 -20 34 -66 -2 -66 0 -75
16 -75 12 0 15 14 15 66 0 64 1 65 30 76 51 17 29 33 -49 36 -65 3 -72 1 -69
-15z"/>
<path d="M3735 1197 c-3 -7 -5 -47 -3 -88 2 -58 6 -74 18 -74 12 0 15 16 15
84 0 59 -4 86 -12 88 -7 3 -15 -2 -18 -10z"/>
<path d="M3878 1193 c-36 -23 -48 -59 -34 -103 31 -95 176 -72 176 29 0 72
-79 113 -142 74z m90 -35 c21 -21 14 -66 -13 -84 -23 -15 -27 -15 -50 0 -27
18 -34 63 -13 84 15 15 61 15 76 0z"/>
<path d="M4094 1197 c-3 -8 -4 -47 -2 -88 2 -61 6 -74 21 -77 14 -3 17 4 17
42 0 25 3 46 7 46 4 0 25 -21 48 -47 25 -29 46 -44 53 -39 12 7 18 157 6 169
-16 15 -34 -8 -34 -44 0 -21 -4 -39 -8 -39 -4 0 -25 20 -45 45 -40 47 -54 54
-63 32z"/>
<path d="M3491 937 c-13 -6 -27 -19 -31 -27 -32 -65 -33 -71 -22 -82 7 -7 12
-38 12 -69 0 -60 7 -73 30 -59 10 6 13 25 11 65 -2 50 0 57 18 62 24 6 29 33
6 33 -9 0 -15 9 -15 25 0 20 5 25 26 25 19 0 25 5 22 17 -4 23 -26 26 -57 10z"/>
<path d="M1763 924 c-7 -18 11 -39 26 -30 17 11 13 46 -4 46 -9 0 -18 -7 -22
-16z"/>
<path d="M1973 924 c-7 -20 17 -37 34 -23 15 13 6 39 -13 39 -8 0 -17 -7 -21
-16z"/>
<path d="M2774 925 c-4 -9 -2 -21 3 -26 14 -14 45 1 41 20 -4 22 -37 26 -44 6z"/>
<path d="M3155 928 c-2 -7 -5 -24 -7 -38 -2 -19 -11 -26 -38 -31 -44 -9 -60
-32 -60 -86 0 -63 52 -107 87 -72 8 8 17 7 32 -2 30 -20 50 1 32 35 -9 16 -12
53 -10 112 4 78 2 89 -14 92 -9 2 -19 -2 -22 -10z m-10 -148 c0 -36 -4 -45
-19 -48 -22 -5 -36 14 -36 49 0 29 18 51 40 47 11 -2 15 -16 15 -48z"/>
<path d="M4097 933 c-11 -11 -8 -233 3 -234 33 -5 35 -2 40 56 4 52 8 60 25
60 17 0 21 -8 25 -60 5 -58 7 -61 40 -56 6 0 10 30 10 65 0 79 -16 101 -67 91
l-33 -6 0 46 c0 37 -3 45 -18 45 -10 0 -22 -3 -25 -7z"/>
<path d="M3963 919 c-57 -16 -87 -92 -63 -163 18 -57 99 -86 145 -53 26 20 10
37 -29 30 -46 -7 -76 23 -76 75 1 56 21 77 75 74 33 -1 45 2 45 13 0 25 -49
37 -97 24z"/>
<path d="M1347 913 c-9 -8 -9 -120 -1 -162 13 -64 105 -82 155 -31 29 28 30
32 27 112 -3 77 -5 83 -25 86 -22 3 -23 1 -23 -80 0 -89 -8 -108 -47 -108 -32
0 -43 28 -43 114 0 67 -2 76 -18 76 -10 0 -22 -3 -25 -7z"/>
<path d="M2494 823 c-4 -54 -8 -102 -9 -108 0 -5 7 -11 16 -13 18 -3 29 34 29
94 0 41 17 45 26 7 23 -94 61 -108 88 -33 10 28 21 50 26 50 4 0 10 -25 13
-56 6 -60 18 -81 37 -69 9 6 11 31 6 94 -10 124 -13 133 -45 129 -22 -3 -29
-12 -45 -61 -11 -31 -24 -56 -30 -54 -5 2 -18 29 -29 60 -17 51 -22 57 -47 57
l-28 0 -8 -97z"/>
<path d="M1847 866 c-11 -16 -13 -26 -5 -34 6 -6 11 -30 10 -54 0 -71 36 -106
78 -77 13 8 12 12 -7 26 -31 21 -33 92 -3 100 26 7 25 11 -6 39 -32 30 -48 30
-67 0z"/>
<path d="M1577 853 c-11 -11 -8 -153 3 -153 6 0 13 0 18 0 4 0 9 26 12 57 5
54 7 58 30 58 23 0 25 -4 28 -55 3 -51 16 -75 34 -64 13 8 9 139 -4 152 -16
16 -50 15 -67 0 -11 -10 -14 -10 -18 0 -5 13 -25 16 -36 5z"/>
<path d="M1764 847 c-3 -8 -4 -45 -2 -83 2 -53 6 -69 18 -69 12 0 16 17 18 83
2 69 0 82 -13 82 -9 0 -18 -6 -21 -13z"/>
<path d="M1977 853 c-4 -3 -7 -39 -7 -79 0 -73 13 -97 39 -71 12 12 15 114 5
141 -6 16 -26 21 -37 9z"/>
<path d="M2068 848 c-2 -7 -3 -42 -2 -78 2 -57 5 -65 23 -68 18 -3 20 3 23 55
2 47 6 58 22 61 26 5 37 -16 31 -58 -4 -22 -1 -42 8 -54 23 -32 37 -10 37 59
0 84 -27 113 -80 85 -13 -7 -21 -7 -25 0 -9 14 -32 12 -37 -2z"/>
<path d="M2271 844 c-18 -13 -22 -23 -17 -48 11 -60 12 -101 2 -118 -21 -35
45 -69 98 -49 27 11 47 46 38 69 -2 7 -24 18 -48 24 -50 14 -58 28 -16 28 33
0 62 27 62 58 0 11 5 24 10 27 24 15 6 25 -48 25 -37 0 -66 -6 -81 -16z m73
-30 c8 -21 -1 -34 -24 -34 -19 0 -34 25 -24 41 9 15 41 10 48 -7z m4 -141 c-2
-12 -12 -18 -28 -18 -16 0 -26 6 -28 18 -3 13 3 17 28 17 25 0 31 -4 28 -17z"/>
<path d="M2777 854 c-10 -11 -9 -152 2 -158 5 -4 17 -3 25 0 24 9 19 157 -4
162 -9 1 -19 0 -23 -4z"/>
<path d="M2869 845 c-4 -51 1 -139 9 -147 19 -19 32 3 32 50 0 56 10 75 36 70
15 -2 20 -15 24 -61 3 -31 8 -57 13 -57 4 0 12 0 17 0 15 0 13 135 -2 148 -17
13 -128 11 -129 -3z"/>
<path d="M3252 848 c-6 -6 -12 -24 -12 -40 0 -20 8 -31 30 -43 44 -23 40 -48
-5 -39 -28 5 -35 3 -35 -10 0 -38 94 -31 112 9 9 20 8 28 -7 45 -10 11 -26 22
-36 25 -31 10 -24 37 9 33 19 -2 27 2 27 12 0 19 -65 26 -83 8z"/>
<path d="M3561 834 c-46 -59 -14 -144 54 -144 65 0 103 102 55 150 -30 30 -83
27 -109 -6z m79 -23 c14 -27 13 -66 -4 -80 -34 -28 -69 27 -47 75 13 29 36 31
51 5z"/>
<path d="M3737 853 c-9 -8 -9 -147 -1 -156 3 -3 12 -3 20 0 9 3 14 21 14 54 0
44 3 50 30 64 19 10 27 20 24 30 -7 18 -10 18 -34 5 -13 -7 -21 -7 -25 0 -7
12 -19 13 -28 3z"/>
<path d="M4293 853 c-7 -2 -13 -11 -13 -19 0 -11 10 -14 38 -12 47 4 51 -20 5
-36 -44 -15 -57 -30 -49 -60 7 -28 37 -42 63 -27 11 6 24 6 35 0 24 -13 51 0
42 20 -4 9 -9 39 -12 66 -2 28 -9 56 -14 63 -10 12 -71 15 -95 5z m67 -102 c0
-6 -5 -13 -10 -16 -15 -9 -43 3 -35 15 8 13 45 13 45 1z"/>
<path d="M4455 852 c-10 -10 -5 -151 5 -157 21 -13 39 17 42 68 3 44 6 52 23
52 17 0 20 -8 23 -55 4 -63 14 -79 38 -59 13 11 15 26 11 77 -2 35 -8 66 -11
70 -8 8 -123 11 -131 4z"/>
<path d="M4658 843 c-12 -14 -16 -38 -14 -107 2 -80 5 -91 24 -104 33 -22 99
-1 108 34 8 32 -8 50 -51 58 -38 7 -48 26 -14 26 31 0 59 18 59 38 0 10 7 27
15 38 23 31 19 34 -48 34 -48 0 -68 -4 -79 -17z m70 -41 c3 -16 -2 -22 -17
-22 -24 0 -35 15 -27 36 9 23 40 13 44 -14z m7 -132 c0 -23 -49 -20 -53 3 -3
15 2 18 25 15 17 -2 28 -9 28 -18z"/>
<path d="M4830 838 c-31 -33 -28 -100 6 -127 38 -30 104 -26 104 5 0 9 -12 13
-36 12 -34 -1 -59 16 -48 34 3 4 25 8 50 8 42 0 44 1 44 29 0 16 -7 37 -16 45
-23 24 -79 20 -104 -6z m71 -23 c0 -5 -9 -11 -21 -13 -20 -3 -27 8 -13 22 10
9 34 3 34 -9z"/>
</g>
</svg>
